<svg xmlns="http://www.w3.org/2000/svg" viewBox="0 0 64 64"><title>Artboard-25</title><g id="Shield"><path d="M27,27.5A2.5,2.5,0,0,0,29.5,30H31V25H29.5A2.5,2.5,0,0,0,27,27.5Z" style="fill:#232328"/><path d="M34.5,37a2.5,2.5,0,0,0,0-5H33v5Z" style="fill:#232328"/><path d="M10,12.846v12.3A36.571,36.571,0,0,0,32,58.679,36.571,36.571,0,0,0,54,25.144v-12.3c-9.571-.746-16.229-3.915-22-7.23C26.229,8.931,19.571,12.1,10,12.846ZM22.64,15.4A52.729,52.729,0,0,1,15,17.268V22a1,1,0,0,1-2,0V16.414a1,1,0,0,1,.852-.989,50.646,50.646,0,0,0,8.169-1.931,1,1,0,0,1,.619,1.9ZM42.913,43.635a1,1,0,1,1,1.619,1.172A33.776,33.776,0,0,1,32.45,55.155a.98.98,0,0,1-.449.108,1,1,0,0,1-.451-1.893A31.787,31.787,0,0,0,42.913,43.635ZM33,21v2h4a1,1,0,0,1,0,2H33v5h1.5a4.5,4.5,0,0,1,0,9H33v2a1,1,0,0,1-2,0V39H27a1,1,0,0,1,0-2h4V32H29.5a4.5,4.5,0,0,1,0-9H31V21a1,1,0,0,1,2,0Z" style="fill:#232328"/><path d="M58,8C46.1,8,38.6,3.657,33.63.784c-.4-.23-.776-.449-1.136-.653a1,1,0,0,0-.988,0c-.36.2-.737.423-1.136.653C25.4,3.657,17.9,8,6,8A1,1,0,0,0,5,9V25.144a41.808,41.808,0,0,0,26.641,38.79,1.009,1.009,0,0,0,.718,0A41.808,41.808,0,0,0,59,25.144V9A1,1,0,0,0,58,8ZM56,25.144A38.571,38.571,0,0,1,32.8,60.513l-.4.174a1,1,0,0,1-.8,0l-.4-.174A38.571,38.571,0,0,1,8,25.144V11.921a1,1,0,0,1,.922-1l.922-.072c9.177-.715,15.593-3.773,21.16-6.97l.5-.286a1,1,0,0,1,1,0l.5.286c5.567,3.2,11.983,6.255,21.16,6.97l.922.072a1,1,0,0,1,.922,1Z" style="fill:#232328"/></g></svg>